<?xml version="1.0" encoding="UTF-8"?>
<svg width="226px" height="102px" viewBox="0 0 226 102" version="1.1" xmlns="http://www.w3.org/2000/svg" xmlns:xlink="http://www.w3.org/1999/xlink">
    <!-- Generator: Sketch 47.1 (45422) - http://www.bohemiancoding.com/sketch -->
    <title>addtohome</title>
    <desc>Created with Sketch.</desc>
    <defs></defs>
    <g id="Zeipt-App" stroke="none" stroke-width="1" fill="none" fill-rule="evenodd">
        <g id="The-Receipt-Copy-2" transform="translate(-144.000000, -13.000000)">
            <g id="addtohome" transform="translate(145.000000, 14.000000)">
                <g id="Group-7" transform="translate(1.000000, 0.000000)" stroke="#277098" stroke-width="2">
                    <path d="M1,26.060241 L1,79 L15.60934,79 L43.1858407,79 L57.7951807,79 L57.7951807,26.060241 L1,26.060241 Z" id="Rectangle-6"></path>
                    <path d="M29.3975904,51.0843373 L29.3975904,0" id="Line-4" stroke-linecap="round"></path>
                    <path d="M44.3373494,13.4939759 L29.8795181,2.84217094e-14" id="Line-4" stroke-linecap="round"></path>
                    <path d="M28.9156627,13.4939759 L14.4578313,2.84217094e-14" id="Line-4" stroke-linecap="round" transform="translate(21.686747, 6.746988) scale(-1, 1) translate(-21.686747, -6.746988) "></path>
                </g>
                <g id="Group-8" transform="translate(144.000000, 0.000000)" fill="#646464">
                    <path d="M37.5,37.5 L25,37.5 C23.6192881,37.5 22.5,38.6192881 22.5,40 C22.5,41.3807119 23.6192881,42.5 25,42.5 L37.5,42.5 L37.5,55 C37.5,56.3807119 38.6192881,57.5 40,57.5 C41.3807119,57.5 42.5,56.3807119 42.5,55 L42.5,42.5 L55,42.5 C56.3807119,42.5 57.5,41.3807119 57.5,40 C57.5,38.6192881 56.3807119,37.5 55,37.5 L42.5,37.5 L42.5,25 C42.5,23.6192881 41.3807119,22.5 40,22.5 C38.6192881,22.5 37.5,23.6192881 37.5,25 L37.5,37.5 Z M19,0 L61,0 C71.4934102,-1.92760819e-15 80,8.50658975 80,19 L80,61 C80,71.4934102 71.4934102,80 61,80 L19,80 C8.50658975,80 1.28507213e-15,71.4934102 0,61 L0,19 L0,19 C-1.28507213e-15,8.50658975 8.50658975,1.92760819e-15 19,0 L19,0 Z" id="Combined-Shape"></path>
                </g>
                <g id="Group-9" transform="translate(112.000000, 62.500000) rotate(-270.000000) translate(-112.000000, -62.500000) translate(74.000000, -49.000000)" stroke="#000000" stroke-linecap="round">
                    <path d="M15.3975904,142.084337 L15.3975904,101" id="Line-4" stroke-width="5"></path>
                    <path d="M75,223 L75,2.84217094e-14" id="Line-4" stroke-width="2"></path>
                    <path d="M30.3373494,114.493976 L15.8795181,101" id="Line-4" stroke-width="5"></path>
                    <path d="M14.9156627,114.493976 L0.457831325,101" id="Line-4" stroke-width="5" transform="translate(7.686747, 107.746988) scale(-1, 1) translate(-7.686747, -107.746988) "></path>
                </g>
            </g>
        </g>
    </g>
</svg>