<?xml version="1.0" encoding="UTF-8"?>
<svg width="59px" height="81px" viewBox="0 0 59 81" version="1.1" xmlns="http://www.w3.org/2000/svg" xmlns:xlink="http://www.w3.org/1999/xlink">
    <!-- Generator: Sketch 47.1 (45422) - http://www.bohemiancoding.com/sketch -->
    <title>addtohome1</title>
    <desc>Created with Sketch.</desc>
    <defs></defs>
    <g id="Zeipt-App" stroke="none" stroke-width="1" fill="none" fill-rule="evenodd">
        <g id="The-Receipt-Copy-2" transform="translate(-146.000000, -13.000000)">
            <g id="addtohome" transform="translate(145.000000, 14.000000)">
                <g id="addtohome1" transform="translate(1.000000, 0.000000)">
                    <path d="M56.7951807,25.060241 L58.7951807,27.060241 L56.7951807,27.060241 L56.7951807,25.060241 Z M58.7951807,78 L56.7951807,80 L56.7951807,78 L58.7951807,78 Z M2,80 L1.13686838e-13,78 L2,78 L2,80 Z M2,27.060241 L2,25.060241 L1.13686838e-13,27.060241 L2,27.060241 Z M1.13686838e-13,27.060241 L2,25.060241 L2,27.060241 L1.13686838e-13,27.060241 Z M1.13686838e-13,78 L2,80 L2,78 L1.13686838e-13,78 Z M58.7951807,78 L56.7951807,80 L56.7951807,78 L58.7951807,78 Z M56.7951807,25.060241 L58.7951807,27.060241 L56.7951807,27.060241 L56.7951807,25.060241 Z M2,27.060241 L15.60934,27.060241 C16.7139095,27.060241 17.60934,26.1648105 17.60934,25.060241 L15.60934,25.060241 L1.13686838e-13,25.060241 L1.13686838e-13,80 L58.7951807,80 L58.7951807,25.060241 L41.1858407,25.060241 C41.1858407,26.1648105 42.0812712,27.060241 43.1858407,27.060241 L56.7951807,27.060241 L56.7951807,78 L43.1858407,78 L15.60934,78 L2,78 L2,27.060241 Z" id="Rectangle-6" fill="#277098" fill-rule="nonzero"></path>
                    <path d="M29.3975904,51.0843373 L29.3975904,0" id="Line-4" stroke="#277098" stroke-width="2" stroke-linecap="round"></path>
                    <path d="M44.3373494,13.4939759 L29.8795181,2.84217094e-14" id="Line-4" stroke="#277098" stroke-width="2" stroke-linecap="round"></path>
                    <path d="M28.9156627,13.4939759 L14.4578313,2.84217094e-14" id="Line-4" stroke="#277098" stroke-width="2" stroke-linecap="round" transform="translate(21.686747, 6.746988) scale(-1, 1) translate(-21.686747, -6.746988) "></path>
                </g>
            </g>
        </g>
    </g>
</svg>