<?xml version="1.0" encoding="UTF-8"?>
<svg width="79px" height="44px" viewBox="0 0 79 44" version="1.1" xmlns="http://www.w3.org/2000/svg" xmlns:xlink="http://www.w3.org/1999/xlink">
    <!-- Generator: Sketch 47.1 (45422) - http://www.bohemiancoding.com/sketch -->
    <title>Group 8</title>
    <desc>Created with Sketch.</desc>
    <defs></defs>
    <g id="Zeipt-App" stroke="none" stroke-width="1" fill="none" fill-rule="evenodd">
        <g id="The-Receipt-Copy-2" transform="translate(-209.000000, -185.000000)">
            <g id="Group-8" transform="translate(209.000000, 185.000000)">
                <g id="Group" transform="translate(5.714286, 0.915114)" stroke="#277098" stroke-linecap="square">
                    <path d="M3.42927055,5.68434189e-14 L3.42927055,40.232329" id="Line-Copy-6"></path>
                    <path d="M1.2529099,5.68434189e-14 L1.2529099,40.232329" id="Line-Copy-6"></path>
                    <path d="M37.7060582,5.68434189e-14 L37.7060582,40.232329" id="Line-Copy-6"></path>
                    <path d="M35.5296975,5.68434189e-14 L35.5296975,40.232329" id="Line-Copy-6"></path>
                    <path d="M6.82961091,0.54771383 L6.82961091,34.1255631" id="Line-Copy-7" stroke-width="2"></path>
                    <path d="M20.1593736,0.54771383 L20.1593736,34.1255631" id="Line-Copy-7" stroke-width="2"></path>
                    <path d="M9.00597156,5.68434189e-14 L9.00597156,34.6730429" id="Line-Copy-8"></path>
                    <path d="M11.1823322,5.68434189e-14 L11.1823322,34.6730429" id="Line-Copy-8"></path>
                    <path d="M13.4944922,5.68434189e-14 L13.4944922,34.6730429" id="Line-Copy-8"></path>
                    <path d="M17.9830129,5.68434189e-14 L17.9830129,34.6730429" id="Line-Copy-8"></path>
                    <path d="M32.2651566,0.54771383 L32.2651566,34.1255631" id="Line-Copy-7" stroke-width="2"></path>
                    <path d="M23.4239146,5.68434189e-14 L23.4239146,34.6730429" id="Line-Copy-8"></path>
                    <path d="M25.6002752,5.68434189e-14 L25.6002752,34.6730429" id="Line-Copy-8"></path>
                    <path d="M27.9124352,5.68434189e-14 L27.9124352,34.6730429" id="Line-Copy-8"></path>
                    <path d="M30.0887959,5.68434189e-14 L30.0887959,34.6730429" id="Line-Copy-8"></path>
                    <path d="M72.2562299,5.68434189e-14 L72.2562299,40.232329" id="Line-Copy-6"></path>
                    <path d="M70.0798693,5.68434189e-14 L70.0798693,40.232329" id="Line-Copy-6"></path>
                    <path d="M52.8047834,0.54771383 L52.8047834,34.1255631" id="Line-Copy-7" stroke-width="2"></path>
                    <path d="M41.9229801,5.68434189e-14 L41.9229801,34.6730429" id="Line-Copy-8"></path>
                    <path d="M40.0182182,5.68434189e-14 L40.0182182,34.6730429" id="Line-Copy-8"></path>
                    <path d="M44.0993408,5.68434189e-14 L44.0993408,34.6730429" id="Line-Copy-8"></path>
                    <path d="M47.3638818,5.68434189e-14 L47.3638818,34.6730429" id="Line-Copy-8"></path>
                    <path d="M50.6284227,5.68434189e-14 L50.6284227,34.6730429" id="Line-Copy-8"></path>
                    <path d="M66.8153283,0.54771383 L66.8153283,34.1255631" id="Line-Copy-7" stroke-width="2"></path>
                    <path d="M56.0693244,5.68434189e-14 L56.0693244,34.6730429" id="Line-Copy-8"></path>
                    <path d="M58.245685,5.68434189e-14 L58.245685,34.6730429" id="Line-Copy-8"></path>
                    <path d="M61.510226,5.68434189e-14 L61.510226,34.6730429" id="Line-Copy-8"></path>
                    <path d="M64.6389676,5.68434189e-14 L64.6389676,34.6730429" id="Line-Copy-8"></path>
                </g>
                <polygon id="7" fill="#277098" points="4.1514678 38.7797619 1.90816423 43.8095238 1.18643804 43.8095238 3.42230113 38.9955357 0.490753516 38.9955357 0.490753516 38.3928571 4.1514678 38.3928571"></polygon>
                <path d="M14.9683306,41.7373512 C14.9683306,42.082095 14.9286485,42.3877715 14.849283,42.6543899 C14.7699175,42.9210083 14.6558314,43.1454604 14.5070211,43.327753 C14.3582108,43.5100456 14.175921,43.648313 13.9601461,43.7425595 C13.7443712,43.836806 13.4975979,43.8839286 13.2198187,43.8839286 C12.9445197,43.8839286 12.6983664,43.836806 12.4813515,43.7425595 C12.2643365,43.648313 12.0801865,43.5100456 11.9288961,43.327753 C11.7776057,43.1454604 11.6616594,42.9210083 11.5810538,42.6543899 C11.5004483,42.3877715 11.4601461,42.082095 11.4601461,41.7373512 L11.4601461,40.46875 C11.4601461,40.1240062 11.4998282,39.8183297 11.5791937,39.5517113 C11.6585592,39.2850929 11.7732654,39.0600208 11.9233157,38.8764881 C12.0733661,38.6929554 12.256896,38.5534479 12.473911,38.4579613 C12.6909259,38.3624747 12.9370792,38.3147321 13.2123782,38.3147321 C13.4901574,38.3147321 13.7375508,38.3624747 13.9545657,38.4579613 C14.1715807,38.5534479 14.3551106,38.6929554 14.505161,38.8764881 C14.6552113,39.0600208 14.7699175,39.2850929 14.849283,39.5517113 C14.9286485,39.8183297 14.9683306,40.1240062 14.9683306,40.46875 L14.9683306,41.7373512 Z M12.1521104,41.5997024 L14.2614854,39.9813988 C14.2218026,39.621774 14.117017,39.3483392 13.9471253,39.1610863 C13.7772335,38.9738334 13.5323203,38.8802083 13.2123782,38.8802083 C12.8502733,38.8802083 12.5830388,39.0023549 12.4106669,39.2466518 C12.238295,39.4909486 12.1521104,39.8474679 12.1521104,40.3162202 L12.1521104,41.5997024 Z M14.2763663,40.639881 L12.1707116,42.250744 C12.2128745,42.6004482 12.3207603,42.8670626 12.4943723,43.0505952 C12.6679843,43.2341279 12.9097973,43.3258929 13.2198187,43.3258929 C13.5844039,43.3258929 13.8516383,43.2018862 14.02153,42.953869 C14.1914217,42.7058519 14.2763663,42.3487126 14.2763663,41.8824405 L14.2763663,40.639881 Z M16.9853355,40.7700893 L17.4764069,40.7700893 C17.6500189,40.7700893 17.8031672,40.746528 17.9358563,40.6994048 C18.0685455,40.6522815 18.1801515,40.587798 18.2706778,40.5059524 C18.361204,40.4241067 18.4300277,40.3261414 18.477151,40.2120536 C18.5242742,40.0979657 18.5478355,39.9727189 18.5478355,39.8363095 C18.5478355,39.5213278 18.4672311,39.283855 18.30602,39.1238839 C18.1448089,38.9639129 17.9091962,38.8839286 17.5991748,38.8839286 C17.4528447,38.8839286 17.3195375,38.9056297 17.1992492,38.9490327 C17.0789609,38.9924357 16.9760353,39.0550591 16.8904694,39.1369048 C16.8049035,39.2187504 16.7385599,39.3167157 16.6914367,39.4308036 C16.6443134,39.5448914 16.6207522,39.6726183 16.6207522,39.8139881 L15.9287879,39.8139881 C15.9287879,39.6081339 15.96909,39.4140634 16.0496956,39.2317708 C16.1303012,39.0494783 16.2437673,38.8907497 16.3900974,38.7555804 C16.5364275,38.620411 16.711897,38.5137653 16.9165111,38.4356399 C17.1211252,38.3575145 17.3486775,38.3184524 17.5991748,38.3184524 C17.8422315,38.3184524 18.0642035,38.3513142 18.2650974,38.4170387 C18.4659913,38.4827632 18.6383606,38.5801085 18.7822105,38.7090774 C18.9260604,38.8380463 19.0376664,38.9980149 19.1170319,39.1889881 C19.1963974,39.3799613 19.2360795,39.6006932 19.2360795,39.8511905 C19.2360795,39.9553577 19.2199587,40.0632435 19.1877164,40.1748512 C19.1554742,40.2864589 19.1058715,40.3949648 19.0389069,40.500372 C18.9719423,40.6057793 18.8857576,40.7049847 18.7803504,40.7979911 C18.6749431,40.8909975 18.5490763,40.9685017 18.4027462,41.030506 C18.5788384,41.0875499 18.7257863,41.1619539 18.8435944,41.2537202 C18.9614025,41.3454866 19.0556476,41.4484121 19.1263325,41.5625 C19.1970174,41.6765879 19.2466201,41.7968744 19.275142,41.9233631 C19.303664,42.0498518 19.3179248,42.1750986 19.3179248,42.2991071 C19.3179248,42.5520846 19.2745224,42.7765367 19.1877164,42.9724702 C19.1009105,43.1684038 18.980624,43.3339527 18.8268533,43.469122 C18.6730827,43.6042914 18.4914129,43.7072169 18.2818385,43.7779018 C18.072264,43.8485867 17.8459518,43.8839286 17.602895,43.8839286 C17.3647986,43.8839286 17.1409665,43.8504468 16.931392,43.7834821 C16.7218176,43.7165175 16.5401478,43.6185522 16.3863772,43.4895833 C16.2326065,43.3606144 16.11046,43.2031259 16.0199337,43.0171131 C15.9294075,42.8311003 15.884145,42.6190488 15.884145,42.3809524 L16.5723891,42.3809524 C16.5723891,42.5223221 16.5965704,42.6512891 16.6449337,42.7678571 C16.693297,42.8844252 16.7621208,42.9836305 16.8514069,43.0654762 C16.9406931,43.1473218 17.0491989,43.2105653 17.1769278,43.2552083 C17.3046566,43.2998514 17.4466442,43.3221726 17.602895,43.3221726 C17.7591458,43.3221726 17.9005134,43.3017115 18.0270022,43.2607887 C18.1534909,43.2198659 18.2613767,43.1572425 18.3506629,43.0729167 C18.439949,42.9885908 18.5087728,42.8838052 18.5571361,42.7585565 C18.6054994,42.6333079 18.6296807,42.4851199 18.6296807,42.3139881 C18.6296807,42.1453365 18.6017792,41.9996286 18.5459754,41.8768601 C18.4901715,41.7540916 18.4120473,41.6517861 18.3116004,41.5699405 C18.2111534,41.4880948 18.0896269,41.4273315 17.947017,41.3876488 C17.8044072,41.3479661 17.6475387,41.328125 17.4764069,41.328125 L16.9853355,41.328125 L16.9853355,40.7700893 Z M21.5358225,43.1994048 C21.7813594,43.1994048 21.9971311,43.1777036 22.1831439,43.1343006 C22.3691568,43.0908976 22.5309855,43.0295143 22.668635,42.9501488 C22.8062845,42.8707833 22.9209907,42.7771583 23.012757,42.6692708 C23.1045234,42.5613834 23.1795474,42.442337 23.2378314,42.312128 C23.2961155,42.181919 23.3388978,42.0442716 23.3661797,41.8991815 C23.3934615,41.7540915 23.4108225,41.6059035 23.418263,41.4546131 C23.3587389,41.5290182 23.2905352,41.599082 23.2136499,41.6648065 C23.1367646,41.7305311 23.0499599,41.7881942 22.9532332,41.8377976 C22.8565065,41.887401 22.7492408,41.9264632 22.6314326,41.9549851 C22.5136245,41.9835071 22.3852776,41.9977679 22.246388,41.9977679 C21.9785295,41.9977679 21.747257,41.945065 21.5525636,41.8396577 C21.3578701,41.7342505 21.1972815,41.595983 21.0707927,41.4248512 C20.944304,41.2537194 20.851299,41.0602689 20.7917749,40.844494 C20.7322508,40.6287192 20.7024892,40.4117074 20.7024892,40.1934524 C20.7024892,39.9379948 20.7378311,39.6968017 20.808516,39.4698661 C20.8792008,39.2429304 20.9846065,39.0445197 21.1247362,38.874628 C21.2648659,38.7047363 21.4397153,38.569569 21.6492898,38.469122 C21.8588642,38.3686751 22.1025374,38.3184524 22.3803166,38.3184524 C22.5886509,38.3184524 22.7765211,38.347594 22.9439326,38.405878 C23.1113442,38.464162 23.2589121,38.5447664 23.386641,38.6476935 C23.5143698,38.7506206 23.6241157,38.8721471 23.715882,39.0122768 C23.8076484,39.1524065 23.8826724,39.3036946 23.9409564,39.4661458 C23.9992405,39.628597 24.0420228,39.7984862 24.0693047,39.9758185 C24.0965865,40.1531507 24.1102273,40.3311003 24.1102273,40.5096726 L24.1102273,40.7589286 C24.1102273,40.9895845 24.0990667,41.2258172 24.0767451,41.4676339 C24.0544236,41.7094506 24.0104012,41.9432032 23.9446767,42.1688988 C23.8789521,42.3945944 23.7865672,42.6072659 23.6675189,42.8069196 C23.5484707,43.0065734 23.3934624,43.1808028 23.2024892,43.3296131 C23.011516,43.4784234 22.7796235,43.5962297 22.5068047,43.6830357 C22.2339858,43.7698417 21.9103283,43.813244 21.5358225,43.813244 L21.465138,43.813244 L21.465138,43.1994048 L21.5358225,43.1994048 Z M22.3579951,41.4285714 C22.4745632,41.4285714 22.5880293,41.4093504 22.6983969,41.3709077 C22.8087645,41.3324651 22.91045,41.2779021 23.0034564,41.2072173 C23.0964629,41.1365324 23.1795473,41.0534479 23.2527124,40.9579613 C23.3258774,40.8624747 23.3835406,40.756449 23.4257035,40.639881 L23.4257035,40.4166667 C23.4257035,40.1760901 23.397802,39.9615585 23.3419981,39.7730655 C23.2861943,39.5845725 23.2105502,39.4252239 23.1150636,39.2950149 C23.019577,39.1648059 22.909211,39.0649805 22.7839624,38.9955357 C22.6587137,38.9260909 22.5254065,38.891369 22.3840368,38.891369 C22.2228257,38.891369 22.080218,38.9236108 21.9562094,38.9880952 C21.8322009,39.0525797 21.7274152,39.1412445 21.6418493,39.2540923 C21.5562834,39.36694 21.4911799,39.5008673 21.4465368,39.655878 C21.4018937,39.8108887 21.3795725,39.9776777 21.3795725,40.15625 C21.3795725,40.314981 21.3994136,40.4706094 21.4390963,40.6231399 C21.4787791,40.7756704 21.5389223,40.9114577 21.6195279,41.030506 C21.7001334,41.1495542 21.8018189,41.2456594 21.9245874,41.3188244 C22.0473559,41.3919895 22.1918237,41.4285714 22.3579951,41.4285714 Z M28.8095238,41.7373512 C28.8095238,42.082095 28.7698417,42.3877715 28.6904762,42.6543899 C28.6111107,42.9210083 28.4970246,43.1454604 28.3482143,43.327753 C28.199404,43.5100456 28.0171142,43.648313 27.8013393,43.7425595 C27.5855644,43.836806 27.3387911,43.8839286 27.0610119,43.8839286 C26.7857129,43.8839286 26.5395596,43.836806 26.3225446,43.7425595 C26.1055297,43.648313 25.9213797,43.5100456 25.7700893,43.327753 C25.6187988,43.1454604 25.5028526,42.9210083 25.422247,42.6543899 C25.3416415,42.3877715 25.3013393,42.082095 25.3013393,41.7373512 L25.3013393,40.46875 C25.3013393,40.1240062 25.3410214,39.8183297 25.4203869,39.5517113 C25.4997524,39.2850929 25.6144586,39.0600208 25.7645089,38.8764881 C25.9145593,38.6929554 26.0980892,38.5534479 26.3151042,38.4579613 C26.5321191,38.3624747 26.7782724,38.3147321 27.0535714,38.3147321 C27.3313506,38.3147321 27.578744,38.3624747 27.7957589,38.4579613 C28.0127739,38.5534479 28.1963038,38.6929554 28.3463542,38.8764881 C28.4964045,39.0600208 28.6111107,39.2850929 28.6904762,39.5517113 C28.7698417,39.8183297 28.8095238,40.1240062 28.8095238,40.46875 L28.8095238,41.7373512 Z M25.9933036,41.5997024 L28.1026786,39.9813988 C28.0629958,39.621774 27.9582102,39.3483392 27.7883185,39.1610863 C27.6184267,38.9738334 27.3735135,38.8802083 27.0535714,38.8802083 C26.6914664,38.8802083 26.424232,39.0023549 26.2518601,39.2466518 C26.0794882,39.4909486 25.9933036,39.8474679 25.9933036,40.3162202 L25.9933036,41.5997024 Z M28.1175595,40.639881 L26.0119048,42.250744 C26.0540677,42.6004482 26.1619535,42.8670626 26.3355655,43.0505952 C26.5091775,43.2341279 26.7509905,43.3258929 27.0610119,43.3258929 C27.4255971,43.3258929 27.6928315,43.2018862 27.8627232,42.953869 C28.0326149,42.7058519 28.1175595,42.3487126 28.1175595,41.8824405 L28.1175595,40.639881 Z M32.2551001,43.8095238 L31.5668561,43.8095238 L31.5668561,39.2708333 L30.1494453,39.8102679 L30.1494453,39.1815476 L32.1992965,38.3928571 L32.2551001,38.3928571 L32.2551001,43.8095238 Z M38.0369859,41.7373512 C38.0369859,42.082095 37.9973038,42.3877715 37.9179383,42.6543899 C37.8385728,42.9210083 37.7244867,43.1454604 37.5756764,43.327753 C37.4268661,43.5100456 37.2445763,43.648313 37.0288014,43.7425595 C36.8130265,43.836806 36.5662532,43.8839286 36.288474,43.8839286 C36.013175,43.8839286 35.7670217,43.836806 35.5500068,43.7425595 C35.3329918,43.648313 35.1488419,43.5100456 34.9975514,43.327753 C34.846261,43.1454604 34.7303147,42.9210083 34.6497092,42.6543899 C34.5691036,42.3877715 34.5288014,42.082095 34.5288014,41.7373512 L34.5288014,40.46875 C34.5288014,40.1240062 34.5684836,39.8183297 34.647849,39.5517113 C34.7272145,39.2850929 34.8419207,39.0600208 34.9919711,38.8764881 C35.1420214,38.6929554 35.3255513,38.5534479 35.5425663,38.4579613 C35.7595813,38.3624747 36.0057346,38.3147321 36.2810336,38.3147321 C36.5588127,38.3147321 36.8062061,38.3624747 37.0232211,38.4579613 C37.240236,38.5534479 37.4237659,38.6929554 37.5738163,38.8764881 C37.7238666,39.0600208 37.8385728,39.2850929 37.9179383,39.5517113 C37.9973038,39.8183297 38.0369859,40.1240062 38.0369859,40.46875 L38.0369859,41.7373512 Z M35.2207657,41.5997024 L37.3301407,39.9813988 C37.290458,39.621774 37.1856723,39.3483392 37.0157806,39.1610863 C36.8458889,38.9738334 36.6009756,38.8802083 36.2810336,38.8802083 C35.9189286,38.8802083 35.6516941,39.0023549 35.4793222,39.2466518 C35.3069504,39.4909486 35.2207657,39.8474679 35.2207657,40.3162202 L35.2207657,41.5997024 Z M37.3450217,40.639881 L35.2393669,42.250744 C35.2815298,42.6004482 35.3894156,42.8670626 35.5630276,43.0505952 C35.7366396,43.2341279 35.9784526,43.3258929 36.288474,43.3258929 C36.6530592,43.3258929 36.9202936,43.2018862 37.0901853,42.953869 C37.2600771,42.7058519 37.3450217,42.3487126 37.3450217,41.8824405 L37.3450217,40.639881 Z" id="039010" fill="#277098"></path>
                <path d="M50.2064259,41.7373512 C50.2064259,42.082095 50.1667437,42.3877715 50.0873782,42.6543899 C50.0080128,42.9210083 49.8939266,43.1454604 49.7451163,43.327753 C49.5963061,43.5100456 49.4140162,43.648313 49.1982413,43.7425595 C48.9824664,43.836806 48.7356931,43.8839286 48.457914,43.8839286 C48.182615,43.8839286 47.9364617,43.836806 47.7194467,43.7425595 C47.5024317,43.648313 47.3182818,43.5100456 47.1669913,43.327753 C47.0157009,43.1454604 46.8997546,42.9210083 46.8191491,42.6543899 C46.7385435,42.3877715 46.6982413,42.082095 46.6982413,41.7373512 L46.6982413,40.46875 C46.6982413,40.1240062 46.7379235,39.8183297 46.817289,39.5517113 C46.8966544,39.2850929 47.0113606,39.0600208 47.161411,38.8764881 C47.3114613,38.6929554 47.4949912,38.5534479 47.7120062,38.4579613 C47.9290212,38.3624747 48.1751745,38.3147321 48.4504735,38.3147321 C48.7282526,38.3147321 48.975646,38.3624747 49.192661,38.4579613 C49.4096759,38.5534479 49.5932059,38.6929554 49.7432562,38.8764881 C49.8933066,39.0600208 50.0080128,39.2850929 50.0873782,39.5517113 C50.1667437,39.8183297 50.2064259,40.1240062 50.2064259,40.46875 L50.2064259,41.7373512 Z M47.3902056,41.5997024 L49.4995806,39.9813988 C49.4598979,39.621774 49.3551122,39.3483392 49.1852205,39.1610863 C49.0153288,38.9738334 48.7704156,38.8802083 48.4504735,38.8802083 C48.0883685,38.8802083 47.8211341,39.0023549 47.6487622,39.2466518 C47.4763903,39.4909486 47.3902056,39.8474679 47.3902056,40.3162202 L47.3902056,41.5997024 Z M49.5144616,40.639881 L47.4088068,42.250744 C47.4509697,42.6004482 47.5588555,42.8670626 47.7324675,43.0505952 C47.9060795,43.2341279 48.1478926,43.3258929 48.457914,43.3258929 C48.8224991,43.3258929 49.0897335,43.2018862 49.2596253,42.953869 C49.429517,42.7058519 49.5144616,42.3487126 49.5144616,41.8824405 L49.5144616,40.639881 Z M54.7531926,39.8065476 C54.7507125,40.0768863 54.6775485,40.3174593 54.5336986,40.5282738 C54.3898487,40.7390884 54.1976383,40.9040173 53.9570617,41.0230655 C54.0959513,41.0825896 54.2218181,41.1563736 54.3346658,41.2444196 C54.4475136,41.3324657 54.5442389,41.4335312 54.6248444,41.547619 C54.70545,41.6617069 54.7674533,41.7857136 54.8108563,41.9196429 C54.8542593,42.0535721 54.8759605,42.1961798 54.8759605,42.3474702 C54.8759605,42.5930072 54.830698,42.811259 54.7401718,43.0022321 C54.6496456,43.1932053 54.5268789,43.353794 54.3718682,43.484003 C54.2168575,43.614212 54.0351877,43.7134173 53.8268533,43.781622 C53.618519,43.8498267 53.3953069,43.8839286 53.1572105,43.8839286 C52.9141537,43.8839286 52.6878415,43.8504468 52.478267,43.7834821 C52.2686926,43.7165175 52.0864027,43.6179322 51.931392,43.4877232 C51.7763813,43.3575142 51.6542347,43.1969256 51.5649486,43.0059524 C51.4756624,42.8149792 51.43102,42.5954874 51.43102,42.3474702 C51.43102,42.1961798 51.4521012,42.0529521 51.4942641,41.9177827 C51.536427,41.7826134 51.5971903,41.6586067 51.6765557,41.5457589 C51.7559212,41.4329111 51.8514064,41.3318457 51.9630141,41.2425595 C52.0746218,41.1532734 52.1998685,41.0788693 52.3387581,41.0193452 C52.2197099,40.9598211 52.1118241,40.8885173 52.0150974,40.8054315 C51.9183707,40.7223458 51.8365263,40.6293408 51.7695617,40.5264137 C51.7025971,40.4234866 51.6505142,40.3112605 51.6133117,40.1897321 C51.5761091,40.0682038 51.5575081,39.9404769 51.5575081,39.8065476 C51.5575081,39.5709314 51.5971903,39.36074 51.6765557,39.1759673 C51.7559212,38.9911945 51.8656671,38.8355661 52.0057968,38.7090774 C52.1459265,38.5825887 52.3133355,38.4858634 52.5080289,38.4188988 C52.7027224,38.3519342 52.9153939,38.3184524 53.1460498,38.3184524 C53.3742255,38.3184524 53.586277,38.3519342 53.7822105,38.4188988 C53.978144,38.4858634 54.1480332,38.5825887 54.2918831,38.7090774 C54.435733,38.8355661 54.5485791,38.9911945 54.6304248,39.1759673 C54.7122704,39.36074 54.7531926,39.5709314 54.7531926,39.8065476 Z M54.1877164,42.3325893 C54.1877164,42.1812988 54.1622951,42.0424113 54.1114516,41.9159226 C54.0606081,41.7894339 53.9893042,41.680928 53.8975379,41.5904018 C53.8057715,41.4998755 53.6960256,41.4298118 53.5682968,41.3802083 C53.440568,41.3306049 53.3010605,41.3058036 53.14977,41.3058036 C52.9935192,41.3058036 52.8521516,41.3306049 52.7256629,41.3802083 C52.5991741,41.4298118 52.4912883,41.4998755 52.4020022,41.5904018 C52.312716,41.680928 52.2438923,41.7894339 52.1955289,41.9159226 C52.1471656,42.0424113 52.1229843,42.1812988 52.1229843,42.3325893 C52.1229843,42.4888401 52.1471656,42.6283476 52.1955289,42.7511161 C52.2438923,42.8738845 52.312716,42.9774301 52.4020022,43.061756 C52.4912883,43.1460818 52.5997942,43.2105653 52.727523,43.2552083 C52.8552518,43.2998514 52.9984795,43.3221726 53.1572105,43.3221726 C53.3085009,43.3221726 53.4473884,43.2998514 53.5738772,43.2552083 C53.7003659,43.2105653 53.8088717,43.1460818 53.899398,43.061756 C53.9899242,42.9774301 54.0606081,42.8738845 54.1114516,42.7511161 C54.1622951,42.6283476 54.1877164,42.4888401 54.1877164,42.3325893 Z M54.0612283,39.8177083 C54.0612283,39.6812989 54.0382871,39.5560522 53.9924039,39.4419643 C53.9465208,39.3278764 53.8832774,39.2292911 53.8026718,39.1462054 C53.7220662,39.0631196 53.625961,38.9986361 53.5143533,38.952753 C53.4027456,38.9068698 53.279979,38.8839286 53.1460498,38.8839286 C53.0121205,38.8839286 52.890594,38.9056297 52.7814664,38.9490327 C52.6723389,38.9924357 52.5780938,39.0550591 52.4987283,39.1369048 C52.4193629,39.2187504 52.3579796,39.3173357 52.3145766,39.4326637 C52.2711736,39.5479916 52.2494724,39.6763386 52.2494724,39.8177083 C52.2494724,39.9590781 52.2711736,40.086185 52.3145766,40.1990327 C52.3579796,40.3118805 52.4199829,40.4086057 52.5005885,40.4892113 C52.581194,40.5698169 52.6766792,40.6318202 52.7870468,40.6752232 C52.8974144,40.7186262 53.019561,40.7403274 53.1534903,40.7403274 C53.2849393,40.7403274 53.4064659,40.7186262 53.5180736,40.6752232 C53.6296813,40.6318202 53.7257865,40.5698169 53.806392,40.4892113 C53.8869976,40.4086057 53.949621,40.3112605 53.9942641,40.1971726 C54.0389071,40.0830847 54.0612283,39.9565979 54.0612283,39.8177083 Z M58.2657332,43.8095238 L57.5774892,43.8095238 L57.5774892,39.2708333 L56.1600785,39.8102679 L56.1600785,39.1815476 L58.2099297,38.3928571 L58.2657332,38.3928571 L58.2657332,43.8095238 Z M61.4508929,40.7700893 L61.9419643,40.7700893 C62.1155763,40.7700893 62.2687245,40.746528 62.4014137,40.6994048 C62.5341028,40.6522815 62.6457089,40.587798 62.7362351,40.5059524 C62.8267614,40.4241067 62.8955851,40.3261414 62.9427083,40.2120536 C62.9898316,40.0979657 63.0133929,39.9727189 63.0133929,39.8363095 C63.0133929,39.5213278 62.9327885,39.283855 62.7715774,39.1238839 C62.6103663,38.9639129 62.3747535,38.8839286 62.0647321,38.8839286 C61.918402,38.8839286 61.7850948,38.9056297 61.6648065,38.9490327 C61.5445182,38.9924357 61.4415927,39.0550591 61.3560268,39.1369048 C61.2704609,39.2187504 61.2041173,39.3167157 61.156994,39.4308036 C61.1098708,39.5448914 61.0863095,39.6726183 61.0863095,39.8139881 L60.3943452,39.8139881 C60.3943452,39.6081339 60.4346474,39.4140634 60.515253,39.2317708 C60.5958585,39.0494783 60.7093247,38.8907497 60.8556548,38.7555804 C61.0019849,38.620411 61.1774543,38.5137653 61.3820685,38.4356399 C61.5866826,38.3575145 61.8142349,38.3184524 62.0647321,38.3184524 C62.3077889,38.3184524 62.5297609,38.3513142 62.7306548,38.4170387 C62.9315486,38.4827632 63.1039179,38.5801085 63.2477679,38.7090774 C63.3916178,38.8380463 63.5032238,38.9980149 63.5825893,39.1889881 C63.6619548,39.3799613 63.7016369,39.6006932 63.7016369,39.8511905 C63.7016369,39.9553577 63.685516,40.0632435 63.6532738,40.1748512 C63.6210316,40.2864589 63.5714289,40.3949648 63.5044643,40.500372 C63.4374997,40.6057793 63.351315,40.7049847 63.2459077,40.7979911 C63.1405005,40.8909975 63.0146337,40.9685017 62.8683036,41.030506 C63.0443957,41.0875499 63.1913437,41.1619539 63.3091518,41.2537202 C63.4269599,41.3454866 63.521205,41.4484121 63.5918899,41.5625 C63.6625748,41.6765879 63.7121774,41.7968744 63.7406994,41.9233631 C63.7692214,42.0498518 63.7834821,42.1750986 63.7834821,42.2991071 C63.7834821,42.5520846 63.7400798,42.7765367 63.6532738,42.9724702 C63.5664678,43.1684038 63.4461813,43.3339527 63.2924107,43.469122 C63.1386401,43.6042914 62.9569703,43.7072169 62.7473958,43.7779018 C62.5378214,43.8485867 62.3115092,43.8839286 62.0684524,43.8839286 C61.830356,43.8839286 61.6065239,43.8504468 61.3969494,43.7834821 C61.1873749,43.7165175 61.0057051,43.6185522 60.8519345,43.4895833 C60.6981639,43.3606144 60.5760173,43.2031259 60.4854911,43.0171131 C60.3949648,42.8311003 60.3497024,42.6190488 60.3497024,42.3809524 L61.0379464,42.3809524 C61.0379464,42.5223221 61.0621277,42.6512891 61.1104911,42.7678571 C61.1588544,42.8844252 61.2276781,42.9836305 61.3169643,43.0654762 C61.4062504,43.1473218 61.5147563,43.2105653 61.6424851,43.2552083 C61.7702139,43.2998514 61.9122016,43.3221726 62.0684524,43.3221726 C62.2247032,43.3221726 62.3660708,43.3017115 62.4925595,43.2607887 C62.6190483,43.2198659 62.7269341,43.1572425 62.8162202,43.0729167 C62.9055064,42.9885908 62.9743301,42.8838052 63.0226935,42.7585565 C63.0710568,42.6333079 63.0952381,42.4851199 63.0952381,42.3139881 C63.0952381,42.1453365 63.0673366,41.9996286 63.0115327,41.8768601 C62.9557289,41.7540916 62.8776047,41.6517861 62.7771577,41.5699405 C62.6767108,41.4880948 62.5551842,41.4273315 62.4125744,41.3876488 C62.2699646,41.3479661 62.1130961,41.328125 61.9419643,41.328125 L61.4508929,41.328125 L61.4508929,40.7700893 Z M68.5832251,43.8095238 L65.034118,43.8095238 L65.034118,43.3147321 L66.8086715,41.343006 C66.9674025,41.1669138 67.1000897,41.0106654 67.206737,40.874256 C67.3133844,40.7378465 67.398949,40.6119797 67.4634334,40.4966518 C67.5279179,40.3813238 67.5738004,40.2721979 67.6010823,40.1692708 C67.6283641,40.0663437 67.6420049,39.960318 67.6420049,39.8511905 C67.6420049,39.7172612 67.6203037,39.5913944 67.5769007,39.4735863 C67.5334977,39.3557782 67.4702543,39.2534727 67.3871686,39.1666667 C67.3040828,39.0798607 67.2036374,39.011037 67.0858293,38.9601935 C66.9680211,38.9093499 66.834714,38.8839286 66.6859037,38.8839286 C66.5048512,38.8839286 66.3479827,38.90997 66.2152936,38.9620536 C66.0826044,39.0141372 65.9722384,39.0879211 65.8841924,39.1834077 C65.7961463,39.2788943 65.7304227,39.3948406 65.6870198,39.53125 C65.6436168,39.6676594 65.6219156,39.8201876 65.6219156,39.9888393 L64.9299513,39.9888393 C64.9299513,39.7606635 64.9696334,39.5455119 65.0489989,39.343378 C65.1283644,39.141244 65.2430706,38.9645345 65.3931209,38.813244 C65.5431713,38.6619536 65.7267012,38.5416671 65.9437162,38.452381 C66.1607312,38.3630948 66.4081245,38.3184524 66.6859037,38.3184524 C66.9413613,38.3184524 67.1713937,38.3562744 67.3760078,38.4319196 C67.580622,38.5075649 67.7536113,38.6123505 67.8949811,38.7462798 C68.0363508,38.880209 68.1448567,39.0389376 68.2205019,39.2224702 C68.2961471,39.4060029 68.3339692,39.6056537 68.3339692,39.8214286 C68.3339692,39.9826397 68.3066877,40.1419883 68.2521239,40.2994792 C68.1975602,40.45697 68.1237762,40.6125984 68.0307698,40.766369 C67.9377633,40.9201397 67.8298775,41.0720479 67.707109,41.2220982 C67.5843406,41.3721486 67.4547536,41.5215766 67.3183442,41.6703869 L65.8637311,43.2477679 L68.5832251,43.2477679 L68.5832251,43.8095238 Z M73.2750812,41.7373512 C73.2750812,42.082095 73.235399,42.3877715 73.1560336,42.6543899 C73.0766681,42.9210083 72.9625819,43.1454604 72.8137717,43.327753 C72.6649614,43.5100456 72.4826715,43.648313 72.2668967,43.7425595 C72.0511218,43.836806 71.8043484,43.8839286 71.5265693,43.8839286 C71.2512703,43.8839286 71.005117,43.836806 70.788102,43.7425595 C70.571087,43.648313 70.3869371,43.5100456 70.2356467,43.327753 C70.0843562,43.1454604 69.96841,42.9210083 69.8878044,42.6543899 C69.8071988,42.3877715 69.7668967,42.082095 69.7668967,41.7373512 L69.7668967,40.46875 C69.7668967,40.1240062 69.8065788,39.8183297 69.8859443,39.5517113 C69.9653097,39.2850929 70.0800159,39.0600208 70.2300663,38.8764881 C70.3801166,38.6929554 70.5636466,38.5534479 70.7806615,38.4579613 C70.9976765,38.3624747 71.2438298,38.3147321 71.5191288,38.3147321 C71.796908,38.3147321 72.0443013,38.3624747 72.2613163,38.4579613 C72.4783313,38.5534479 72.6618612,38.6929554 72.8119115,38.8764881 C72.9619619,39.0600208 73.0766681,39.2850929 73.1560336,39.5517113 C73.235399,39.8183297 73.2750812,40.1240062 73.2750812,40.46875 L73.2750812,41.7373512 Z M70.4588609,41.5997024 L72.5682359,39.9813988 C72.5285532,39.621774 72.4237675,39.3483392 72.2538758,39.1610863 C72.0839841,38.9738334 71.8390709,38.8802083 71.5191288,38.8802083 C71.1570238,38.8802083 70.8897894,39.0023549 70.7174175,39.2466518 C70.5450456,39.4909486 70.4588609,39.8474679 70.4588609,40.3162202 L70.4588609,41.5997024 Z M72.5831169,40.639881 L70.4774621,42.250744 C70.519625,42.6004482 70.6275109,42.8670626 70.8011228,43.0505952 C70.9747348,43.2341279 71.2165479,43.3258929 71.5265693,43.3258929 C71.8911544,43.3258929 72.1583889,43.2018862 72.3282806,42.953869 C72.4981723,42.7058519 72.5831169,42.3487126 72.5831169,41.8824405 L72.5831169,40.639881 Z" id="081320" fill="#277098"></path>
            </g>
        </g>
    </g>
</svg>