<?xml version="1.0" encoding="UTF-8"?>
<svg width="66px" height="81px" viewBox="0 0 66 81" version="1.1" xmlns="http://www.w3.org/2000/svg" xmlns:xlink="http://www.w3.org/1999/xlink">
    <!-- Generator: Sketch 47.1 (45422) - http://www.bohemiancoding.com/sketch -->
    <title>Group 11</title>
    <desc>Created with Sketch.</desc>
    <defs>
        <rect id="path-1" x="26" y="20" width="19" height="19" rx="1"></rect>
        <rect id="path-2" x="0" y="45" width="19" height="19" rx="1"></rect>
    </defs>
    <g id="Zeipt-App" stroke="none" stroke-width="1" fill="none" fill-rule="evenodd">
        <g id="The-Receipt-Copy-2" transform="translate(-181.000000, -157.000000)">
            <g id="Group-11" transform="translate(181.000000, 157.000000)">
                <path d="M60.5,12.5 L59.5,12.5 L59.5,73.5 C59.5,77.4473059 60.5300725,79.6639338 62.5976281,80.3038837 C61.2002259,79.0258417 60.5,76.7367545 60.5,73.5 L60.5,12.5 Z" id="Rectangle-7" stroke="#277098" transform="translate(62.500000, 46.500000) scale(-1, 1) translate(-62.500000, -46.500000) "></path>
                <path d="M65,12.5 L61.5,12.5" id="Line-6" stroke="#277098" stroke-width="2" stroke-linecap="square"></path>
                <path d="M59.5,77.5 C58.5,77.5 58,75.8333333 58,72.5 L58,4.5 L55,4.5" id="Line-6" stroke="#277098" stroke-width="2" stroke-linecap="round"></path>
                <polyline id="Line-6" stroke="#277098" stroke-width="2" stroke-linecap="round" points="61.5 75.5 61.5 8.5 58.5 8.5"></polyline>
                <path d="M54,1 L1,1 L1,73.5 C1,78.0129658 2.32468946,80 5,80 L55.6431305,80 C54.5489451,78.5608029 54,76.3684723 54,73.5 L54,1 Z" id="Rectangle-7" stroke="#277098" stroke-width="2"></path>
                <g id="Group-10" transform="translate(5.000000, 7.000000)">
                    <path d="M0.5,14.5 L44.5,14.5" id="Line-7" stroke="#277098" stroke-width="2" stroke-linecap="round"></path>
                    <path d="M32.3900762,0.658978029 C31.7598397,0.553604387 31.163545,0.979727375 31.0584799,1.60996358 L29.9967204,7.98067196 L28.5341398,5.78680198 C28.3196897,5.46497267 27.9583644,5.27165909 27.5714286,5.27165909 C27.1844927,5.27165909 26.8231674,5.46497267 26.6087173,5.78695626 L25.1461367,7.98082624 L24.0843773,1.61011786 C23.9793121,0.979727375 23.3824003,0.552678703 22.7527809,0.65913231 C22.1223902,0.764197392 21.6965756,1.36033759 21.8016407,1.99072808 L23.3444472,11.2474092 C23.4225133,11.7156508 23.7787473,12.0888555 24.2429778,12.1885208 C24.7068997,12.2872603 25.1851697,12.094101 25.4485268,11.6989885 L27.5714286,8.51463708 L29.6943304,11.6989885 C29.9117118,12.0251376 30.2755056,12.2144399 30.6568874,12.2142856 C30.7374219,12.2142856 30.818882,12.2058002 30.8998794,12.1885208 C31.3641099,12.0888555 31.7203439,11.715805 31.7984099,11.2474092 L33.3412164,1.9905738 C33.4462816,1.36018331 33.020467,0.764043111 32.3900762,0.658978029 Z" id="Shape" fill="#277098" fill-rule="nonzero"></path>
                    <path d="M39.8265006,5.28762857 C37.9085364,4.96270286 37.6525974,4.75750286 37.6525974,4.11505714 C37.6525974,3.01284 39.2956877,2.95698857 39.625,2.95698857 C40.6153039,2.95698857 41.3697084,3.28392 41.5467513,3.78997714 C41.7581929,4.39462286 42.4310188,4.71661714 43.0494065,4.51033714 C43.6677942,4.30344 43.9977377,3.64572 43.7861383,3.04092 C43.2685799,1.56178286 41.6740896,0.642857143 39.625,0.642857143 C37.0701864,0.642857143 35.2857143,2.07077143 35.2857143,4.11521143 C35.2857143,6.86705143 37.8750844,7.30584 39.422237,7.56797143 C41.3413058,7.89305143 41.5972448,8.09840571 41.5972448,8.74193143 C41.5972448,9.84414857 39.9541545,9.9 39.6248422,9.9 C38.6342227,9.9 37.8798182,9.57291429 37.7030909,9.06670286 C37.4918071,8.46190286 36.819139,8.13929143 36.2005935,8.34557143 C35.5822058,8.55216 35.2519468,9.20988 35.4632305,9.81452571 C35.9803156,11.2947429 37.5749636,12.2142857 39.625,12.2142857 C42.1798136,12.2142857 43.9642857,10.7863714 43.9642857,8.74193143 C43.9642857,5.98870286 41.3739688,5.54991429 39.8265006,5.28762857 Z" id="Shape" fill="#277098" fill-rule="nonzero"></path>
                    <path d="M18.6737013,7.58571429 C19.3272766,7.58571429 19.8571429,7.06777714 19.8571429,6.42857143 C19.8571429,5.78936571 19.3272766,5.27142857 18.6737013,5.27142857 L13.5454545,5.27142857 L13.5454545,2.95714286 L18.6737013,2.95714286 C19.3272766,2.95714286 19.8571429,2.43920571 19.8571429,1.8 C19.8571429,1.16079429 19.3272766,0.642857143 18.6737013,0.642857143 L12.362013,0.642857143 C11.7084377,0.642857143 11.1785714,1.16079429 11.1785714,1.8 L11.1785714,11.0571429 C11.1785714,11.6963486 11.7084377,12.2142857 12.362013,12.2142857 L18.6737013,12.2142857 C19.3272766,12.2142857 19.8571429,11.6963486 19.8571429,11.0571429 C19.8571429,10.4179371 19.3272766,9.9 18.6737013,9.9 L13.5454545,9.9 L13.5454545,7.58571429 L18.6737013,7.58571429 Z" id="Shape" fill="#277098" fill-rule="nonzero"></path>
                    <path d="M8.06657996,0.643151381 C7.41301652,0.643151381 6.88315992,1.16106845 6.88315992,1.80024939 L6.88315992,7.23537014 L2.73961188,1.15829141 C2.45038402,0.734022145 1.91137564,0.544720911 1.41197238,0.692675176 C0.912884701,0.840320881 0.571428571,1.29020059 0.571428571,1.80009511 L0.571428571,11.0568791 C0.571428571,11.6960601 1.10128517,12.2139772 1.75484861,12.2139772 C2.40841205,12.2139772 2.93826865,11.6960601 2.93826865,11.0568791 L2.93826865,5.6217584 L7.08181669,11.6988371 C7.30540419,12.0268358 7.6782604,12.2142857 8.06657996,12.2142857 C8.18066165,12.2142857 8.29616345,12.1980863 8.40945619,12.1644534 C8.90854387,12.0168077 9.25,11.566928 9.25,11.0570334 L9.25,1.80024939 C9.25,1.16106845 8.7201434,0.643151381 8.06657996,0.643151381 Z" id="Shape" fill="#277098" fill-rule="nonzero"></path>
                    <path d="M1,22 L23,22" id="Line-7" stroke="#277098" stroke-linecap="round"></path>
                    <path d="M23,46 L45,46" id="Line-7-Copy-2" stroke="#277098" stroke-linecap="round"></path>
                    <path d="M1,30 L23,30" id="Line-7" stroke="#277098" stroke-linecap="round"></path>
                    <path d="M23,54 L45,54" id="Line-7-Copy-3" stroke="#277098" stroke-linecap="round"></path>
                    <path d="M1,38 L23,38" id="Line-7-Copy" stroke="#277098" stroke-linecap="round"></path>
                    <path d="M23,62 L45,62" id="Line-7-Copy-4" stroke="#277098" stroke-linecap="round"></path>
                    <g id="Rectangle-14">
                        <use fill="#277098" fill-rule="evenodd" xlink:href="#path-1"></use>
                        <rect stroke="#277098" stroke-width="2" x="27" y="21" width="17" height="17" rx="1"></rect>
                    </g>
                    <g id="Rectangle-14-Copy">
                        <use fill="#277098" fill-rule="evenodd" xlink:href="#path-2"></use>
                        <rect stroke="#277098" stroke-width="2" x="1" y="46" width="17" height="17" rx="1"></rect>
                    </g>
                </g>
            </g>
        </g>
    </g>
</svg>