<?xml version="1.0" encoding="UTF-8"?>
<svg width="82px" height="82px" viewBox="0 0 82 82" version="1.1" xmlns="http://www.w3.org/2000/svg" xmlns:xlink="http://www.w3.org/1999/xlink">
    <!-- Generator: Sketch 47.1 (45422) - http://www.bohemiancoding.com/sketch -->
    <title>qr-icon</title>
    <desc>Created with Sketch.</desc>
    <defs>
        <rect id="path-1" x="9.6875" y="9.6875" width="11.25" height="11.25"></rect>
        <rect id="path-2" x="58.75" y="9.6875" width="11.25" height="11.25"></rect>
        <rect id="path-3" x="9.6875" y="58.75" width="11.25" height="11.25"></rect>
    </defs>
    <g id="Zeipt-App" stroke="none" stroke-width="1" fill="none" fill-rule="evenodd">
        <g id="The-Receipt-Copy-2" transform="translate(-18.000000, -158.000000)">
            <g id="qr-icon" transform="translate(19.000000, 159.000000)">
                <rect id="Rectangle-5" stroke="#277098" x="4.875" y="4.875" width="20.875" height="20.875"></rect>
                <rect id="Rectangle-5-Copy" stroke="#277098" x="53.9375" y="4.875" width="20.875" height="20.875"></rect>
                <rect id="Rectangle-5-Copy-3" stroke="#277098" x="4.875" y="53.9375" width="20.875" height="20.875"></rect>
                <g id="Rectangle-5">
                    <use fill="#277098" fill-rule="evenodd" xlink:href="#path-1"></use>
                    <rect stroke="#277098" stroke-width="1" x="10.1875" y="10.1875" width="10.25" height="10.25"></rect>
                </g>
                <g id="Rectangle-5-Copy-2">
                    <use fill="#277098" fill-rule="evenodd" xlink:href="#path-2"></use>
                    <rect stroke="#277098" stroke-width="1" x="59.25" y="10.1875" width="10.25" height="10.25"></rect>
                </g>
                <g id="Rectangle-5-Copy-4">
                    <use fill="#277098" fill-rule="evenodd" xlink:href="#path-3"></use>
                    <rect stroke="#277098" stroke-width="1" x="10.1875" y="59.25" width="10.25" height="10.25"></rect>
                </g>
                <path d="M31.71875,4.53125 L31.71875,25.7835477" id="Line" stroke="#277098" stroke-linecap="square"></path>
                <path d="M4.375,31.875 L10.625,31.875" id="Line-Copy-13" stroke="#277098" stroke-linecap="square"></path>
                <polyline id="Line-Copy-35" stroke="#277098" stroke-width="2" stroke-linecap="square" points="0 10.62626 0 0 10.625 0"></polyline>
                <polyline id="Line-Copy-37" stroke="#277098" stroke-width="2" stroke-linecap="square" transform="translate(5.312500, 74.375630) scale(1, -1) translate(-5.312500, -74.375630) " points="0 79.68876 0 69.0625 10.625 69.0625"></polyline>
                <polyline id="Line-Copy-36" stroke="#277098" stroke-width="2" stroke-linecap="square" transform="translate(74.687500, 5.313130) scale(-1, 1) translate(-74.687500, -5.313130) " points="69.375 10.62626 69.375 0 80 0"></polyline>
                <polyline id="Line-Copy-38" stroke="#277098" stroke-width="2" stroke-linecap="square" transform="translate(74.687500, 74.375630) scale(-1, -1) translate(-74.687500, -74.375630) " points="69.375 79.68876 69.375 69.0625 80 69.0625"></polyline>
                <path d="M38.75,31.875 L45,31.875" id="Line-Copy-17" stroke="#277098" stroke-linecap="square"></path>
                <path d="M29.0625,37.1875 L35.3125,37.1875" id="Line-Copy-21" stroke="#277098" stroke-linecap="square"></path>
                <path d="M69.0625,37.1875 L75.3125,37.1875" id="Line-Copy-27" stroke="#277098" stroke-linecap="square"></path>
                <path d="M14.0625,31.875 L35.3125,31.875" id="Line-Copy-15" stroke="#277098" stroke-linecap="square"></path>
                <path d="M4.6875,37.1875 L25.9375,37.1875" id="Line-Copy-22" stroke="#277098" stroke-linecap="square"></path>
                <path d="M48.75,31.875 L75.3125,31.875" id="Line-Copy-18" stroke="#277098" stroke-linecap="square"></path>
                <path d="M39.375,37.1875 L65.9375,37.1875" id="Line-Copy-23" stroke="#277098" stroke-linecap="square"></path>
                <path d="M4.375,42.8125 L10.625,42.8125" id="Line-Copy-14" stroke="#277098" stroke-linecap="square"></path>
                <path d="M38.75,42.8125 L45,42.8125" id="Line-Copy-19" stroke="#277098" stroke-linecap="square"></path>
                <path d="M29.0625,48.125 L35.3125,48.125" id="Line-Copy-24" stroke="#277098" stroke-linecap="square"></path>
                <path d="M69.0625,48.125 L75.3125,48.125" id="Line-Copy-28" stroke="#277098" stroke-linecap="square"></path>
                <path d="M52.5,55 L75.3125,55" id="Line-Copy-29" stroke="#277098" stroke-linecap="square"></path>
                <path d="M52.5,67.1875 L75.3125,67.1875" id="Line-Copy-34" stroke="#277098" stroke-linecap="square"></path>
                <path d="M52.5,61.875 L58.75,61.875" id="Line-Copy-30" stroke="#277098" stroke-linecap="square"></path>
                <path d="M62.1875,61.875 L75.3125,61.875" id="Line-Copy-32" stroke="#277098" stroke-linecap="square"></path>
                <path d="M52.5,74.375 L58.75,74.375" id="Line-Copy-31" stroke="#277098" stroke-linecap="square"></path>
                <path d="M62.1875,74.375 L75.3125,74.375" id="Line-Copy-33" stroke="#277098" stroke-linecap="square"></path>
                <path d="M14.0625,42.8125 L35.3125,42.8125" id="Line-Copy-16" stroke="#277098" stroke-linecap="square"></path>
                <path d="M4.6875,48.125 L25.9375,48.125" id="Line-Copy-25" stroke="#277098" stroke-linecap="square"></path>
                <path d="M48.75,42.8125 L75.3125,42.8125" id="Line-Copy-20" stroke="#277098" stroke-linecap="square"></path>
                <path d="M39.375,48.125 L65.9375,48.125" id="Line-Copy-26" stroke="#277098" stroke-linecap="square"></path>
                <path d="M31.71875,53.90625 L31.71875,75.1585477" id="Line-Copy-6" stroke="#277098" stroke-linecap="square"></path>
                <path d="M42.65625,4.53125 L42.65625,25.7835477" id="Line-Copy-3" stroke="#277098" stroke-linecap="square"></path>
                <path d="M42.65625,53.90625 L42.65625,75.1585477" id="Line-Copy-7" stroke="#277098" stroke-linecap="square"></path>
                <path d="M37.1875,13.125 L37.1875,25.9397977" id="Line-Copy-2" stroke="#277098" stroke-linecap="square"></path>
                <path d="M37.1875,62.5 L37.1875,75.3147977" id="Line-Copy-8" stroke="#277098" stroke-linecap="square"></path>
                <path d="M48.125,4.6875 L48.125,17.3460477" id="Line-Copy-5" stroke="#277098" stroke-linecap="square"></path>
                <path d="M48.125,54.0625 L48.125,66.7210477" id="Line-Copy-9" stroke="#277098" stroke-linecap="square"></path>
                <path d="M37.1875,4.6875 L37.1875,9.53125" id="Line-Copy" stroke="#277098" stroke-linecap="square"></path>
                <path d="M37.1875,54.0625 L37.1875,58.90625" id="Line-Copy-10" stroke="#277098" stroke-linecap="square"></path>
                <path d="M48.125,20.9375 L48.125,25.9375" id="Line-Copy-4" stroke="#277098" stroke-linecap="square"></path>
                <path d="M48.125,70.3125 L48.125,75.3125" id="Line-Copy-11" stroke="#277098" stroke-linecap="square"></path>
            </g>
        </g>
    </g>
</svg>