<?xml version="1.0" encoding="UTF-8"?>
<svg width="56px" height="84px" viewBox="0 0 56 84" version="1.1" xmlns="http://www.w3.org/2000/svg" xmlns:xlink="http://www.w3.org/1999/xlink">
    <!-- Generator: Sketch 47.1 (45422) - http://www.bohemiancoding.com/sketch -->
    <title>receipt-icon</title>
    <desc>Created with Sketch.</desc>
    <defs></defs>
    <g id="Zeipt-App" stroke="none" stroke-width="1" fill="none" fill-rule="evenodd">
        <g id="The-Receipt-Copy-2" transform="translate(-118.000000, -156.000000)" stroke="#277098">
            <g id="receipt-icon" transform="translate(119.000000, 157.000000)">
                <path d="M38.1814632,77.8827603 L37.1028522,77.8827603 L34.9529422,80.6802974 L32.8030322,77.8827603 L31.7244211,77.8827603 L29.5745112,80.6802974 L27.4246012,77.8827603 L26.3459901,77.8827603 L24.1960801,80.6802974 L22.0461701,77.8827603 L20.9675591,77.8827603 L18.8176491,80.6802974 L16.6677391,77.8827603 L15.589128,77.8827603 L13.4392181,80.6802974 L11.2893081,77.8827603 L10.210697,77.8827603 L8.06078703,80.6802974 L5.91087705,77.8827603 L4.83226597,77.8827603 L2.68235599,80.6802974 L0.343984281,77.6375274 C0.133228868,77.4541905 3.68953919e-17,77.1840341 0,76.8827603 L0,0 L53.8413908,0 L53.8413908,76.8827603 C53.8413908,77.2532235 53.6399414,77.5766357 53.3406105,77.7494291 L51.0882353,80.6802974 L48.9383253,77.8827603 L47.8597142,77.8827603 L45.7098043,80.6802974 L43.5598943,77.8827603 L42.4812832,77.8827603 L40.3313732,80.6802974 L38.1814632,77.8827603 Z" id="Combined-Shape" stroke-width="2"></path>
                <g id="Group-2" transform="translate(6.981254, 7.791209)" stroke-linecap="square">
                    <path d="M0,30.7802198 L23.2708468,30.7802198" id="Line-Copy"></path>
                    <path d="M37.6987718,30.7802198 L40.0258565,30.7802198" id="Line-Copy-5"></path>
                    <path d="M0,11.4395604 L23.2708468,11.4395604" id="Line-Copy-2"></path>
                    <path d="M0,1.43956044 L40.0258565,1.43956044" id="Line-Copy-2"></path>
                    <path d="M37.6987718,11.4395604 L40.0258565,11.4395604" id="Line-Copy-16"></path>
                    <path d="M0,40.4505495 L23.2708468,40.4505495" id="Line-Copy-3"></path>
                    <path d="M37.6987718,40.4505495 L40.0258565,40.4505495" id="Line-Copy-17"></path>
                    <path d="M0,21.1098901 L23.2708468,21.1098901" id="Line-Copy-4"></path>
                    <path d="M37.6987718,21.1098901 L40.0258565,21.1098901" id="Line-Copy-18"></path>
                </g>
                <g id="Group" transform="translate(6.981254, 56.263736)" stroke-linecap="square">
                    <path d="M0.465416936,0.43956044 L0.465416936,14.9450549" id="Line-Copy-6"></path>
                    <path d="M37.6987718,0.43956044 L37.6987718,14.9450549" id="Line-Copy-15"></path>
                    <path d="M39.5604396,0.43956044 L39.5604396,14.9450549" id="Line-Copy-15"></path>
                    <path d="M20.0129282,0.43956044 L20.0129282,14.9450549" id="Line-Copy-9"></path>
                    <path d="M3.25791855,0.43956044 L3.25791855,12.3076923" id="Line-Copy-7"></path>
                    <path d="M22.8054299,0.43956044 L22.8054299,12.3076923" id="Line-Copy-10"></path>
                    <path d="M6.05042017,0.43956044 L6.05042017,12.3076923" id="Line-Copy-8"></path>
                    <path d="M7.91208791,0.43956044 L7.91208791,12.3076923" id="Line-Copy-8"></path>
                    <path d="M25.5979315,0.43956044 L25.5979315,12.3076923" id="Line-Copy-11"></path>
                    <path d="M27.4595992,0.43956044 L27.4595992,12.3076923" id="Line-Copy-11"></path>
                    <path d="M35.8371041,0.43956044 L35.8371041,12.3076923" id="Line-Copy-11"></path>
                    <path d="M9.77375566,0.43956044 L9.77375566,12.3076923" id="Line-Copy-8"></path>
                    <path d="M29.321267,0.43956044 L29.321267,12.3076923" id="Line-Copy-12"></path>
                    <path d="M11.6354234,0.43956044 L11.6354234,12.3076923" id="Line-Copy-8"></path>
                    <path d="M31.1829347,0.43956044 L31.1829347,12.3076923" id="Line-Copy-13"></path>
                    <path d="M14.427925,0.43956044 L14.427925,12.3076923" id="Line-Copy-8"></path>
                    <path d="M33.5100194,0.43956044 L33.5100194,12.3076923" id="Line-Copy-14"></path>
                    <path d="M17.2204266,0.43956044 L17.2204266,14.5054945" id="Line-Copy-8"></path>
                </g>
            </g>
        </g>
    </g>
</svg>