<?xml version="1.0" encoding="UTF-8"?>
<svg width="60px" height="60px" viewBox="0 0 60 60" version="1.1" xmlns="http://www.w3.org/2000/svg" xmlns:xlink="http://www.w3.org/1999/xlink">
    <!-- Generator: Sketch 47.1 (45422) - http://www.bohemiancoding.com/sketch -->
    <title>receiptguy</title>
    <desc>Created with Sketch.</desc>
    <defs>
        <linearGradient x1="50%" y1="0%" x2="50%" y2="79.762904%" id="linearGradient-1">
            <stop stop-color="#A69168" offset="0%"></stop>
            <stop stop-color="#A69168" stop-opacity="0" offset="100%"></stop>
        </linearGradient>
        <linearGradient x1="50%" y1="0%" x2="50%" y2="100%" id="linearGradient-2">
            <stop stop-color="#FFFFFF" stop-opacity="0" offset="0%"></stop>
            <stop stop-color="#FFFFFF" offset="100%"></stop>
        </linearGradient>
    </defs>
    <g id="Zeipt-Mockup-App" stroke="none" stroke-width="1" fill="none" fill-rule="evenodd">
        <g id="Start-Screen-Copy" transform="translate(-158.000000, -78.000000)">
            <g id="receiptguy" transform="translate(158.000000, 78.000000)">
                <g id="IMAGE-CIRCLE" fill="#FFFFFF">
                    <circle id="Combined-Shape" cx="30" cy="30" r="30"></circle>
                </g>
                <g id="GET-RECEIPT-GUY" transform="translate(11.000000, 8.000000)">
                    <g id="Group-12" transform="translate(0.000000, 4.435484)">
                        <g id="Group-3-Copy-2" transform="translate(0.000000, 0.381863)">
                            <g id="Group-2" transform="translate(32.381457, 19.049782)" fill="#DFB975">
                                <path d="M0.186794196,10.9423167 C0.186794196,10.9423167 0.425400422,8.32654881 0.944255186,5.47115833 C1.46310995,2.61576784 2.1751293,0 2.1751293,0 C2.1751293,0 5.21515958,0.411562422 4.54219489,4.11505926 C3.8692302,7.81855609 0.186794196,10.9423167 0.186794196,10.9423167 Z" id="Oval-5-Copy-2"></path>
                            </g>
                            <g id="Group" transform="translate(0.000000, 19.236830)" fill="#DFB975">
                                <path d="M4.63944857,10.9423167 C4.63944857,10.9423167 4.40084234,8.32654881 3.88198758,5.47115833 C3.36313281,2.61576784 2.65111347,0 2.65111347,0 C2.65111347,0 -0.38891682,0.411562422 0.284047872,4.11505926 C0.957012563,7.81855609 4.63944857,10.9423167 4.63944857,10.9423167 Z" id="Oval-5-Copy"></path>
                            </g>
                            <path d="M18.5078819,38.8247618 C31.5285956,38.9466707 35.5034129,29.1078526 35.5034129,20.1720705 C35.5034129,11.2362883 34.8406345,4.08592974 18.6499058,4.08592974 C2.45917717,4.08592974 1.51235093,11.1427643 1.51235093,20.0785464 C1.51235093,29.0143285 5.48716818,38.7028529 18.5078819,38.8247618 Z" id="Combined-Shape" fill="#E5C58C"></path>
                            <path d="M5.04032258,24.8197501 C7.05645161,25.6267671 11.4623571,23.2068468 19.5564516,23.2068468 C27.6505462,23.2068468 34.6774194,26.0294275 34.6774194,26.0294275 C34.6774194,26.0294275 35.0557567,24.1327314 35.0806452,23.6100726 C35.1055337,23.0874139 35.0806452,17.5616855 35.0806452,17.5616855 L2.62096774,16.1503952 C2.62096774,16.1503952 3.02419355,24.012733 5.04032258,24.8197501 Z" id="Oval-5-Copy-4" fill="url(#linearGradient-1)"></path>
                            <polygon id="Oval-5-Copy-3" fill="#382308" points="1.84443595 14.1342662 0.806451613 17.9102612 1.52639903 17.1209026 0.403225806 19.887067 1.63852797 19.887067 1.84443595 24.9667128 5.44354839 15.2892935"></polygon>
                            <path d="M36.2634449,12.5966205 L29.7303439,3.24421308 C29.7303439,3.24421308 14.3917588,3.33773715 15.2439024,0.906111229 C16.0960461,-1.52551469 8.71080139,4.92764641 8.71080139,4.92764641 C8.71080139,4.92764641 13.1474043,7.47793068 17.5162854,10.5390908 C21.8851666,13.600251 25.8330736,16.9552529 28.5941524,17.2728242 C34.2167466,17.9195186 36.2634449,12.5966205 36.2634449,12.5966205 Z" id="Oval-5-Copy-6" fill-opacity="0.100000001" fill="url(#linearGradient-2)"></path>
                            <polygon id="Oval-5-Copy-5" fill-opacity="0.100000001" fill="url(#linearGradient-2)" points="1.81451613 14.1129032 1.20967742 16.3306452 2.9233871 15.3225806 1.20967742 18.75 2.9233871 17.1370968 2.21774194 20.9677419 4.03225806 17.5403226"></polygon>
                            <g id="Group-4" transform="translate(34.500000, 19.822581) scale(-1, 1) translate(-34.500000, -19.822581) translate(31.500000, 15.322581)">
                                <polygon id="Oval-5-Copy-7" fill="#382308" points="2.24766175 1.17639024 0 4.25523392 1.00806452 4.25523392 0.403225806 6.87620167 1.84443595 6.47297586 2.24766175 8.83768056 5.44354839 1.17639024"></polygon>
                                <polygon id="Oval-5-Copy-8" fill-opacity="0.100000001" fill="url(#linearGradient-2)" points="1.81451613 -3.78192101e-13 1.20967742 2.21774194 2.9233871 1.20967742 1.20967742 4.63709677 2.9233871 3.02419355 2.21774194 6.85483871 4.03225806 3.42741935"></polygon>
                            </g>
                        </g>
                    </g>
                    <g id="Group-3" transform="translate(1.209677, 0.000000)">
                        <ellipse id="Oval" fill="#102438" cx="17.5425879" cy="0.996737949" rx="1.19608554" ry="1"></ellipse>
                        <path d="M8.05153284,2.81821628 C11.4686882,1.00762808 17.3984579,0.806451613 17.3984579,0.806451613 C17.3984579,0.806451613 23.5292367,1.20880455 26.8458876,2.81821628 C30.1625384,4.42762801 33.6801984,6.43939268 34.6852441,11.0664514 C35.6902898,15.6935101 34.484235,20.7185574 34.484235,20.7185574 L0.312680887,20.7185574 C0.312680887,20.7185574 -0.390851109,14.9893925 0.312680887,11.0664514 C1.01621288,7.14351031 4.63437743,4.62880448 8.05153284,2.81821628 Z" id="Rectangle" fill="#21466C"></path>
                        <g id="Fill-26-+-Fill-27-+-Fill-28" transform="translate(13.709677, 6.854839)" fill="#3CBF71">
                            <polygon id="Fill-26" points="0 6.32863951 3.71672788 0.0109397399 8.21220416 0.0109397399 4.43057112 6.32863951"></polygon>
                            <polyline id="Fill-27" points="8.21220416 1.07756438 8.21220416 6.32863951 5.07971391 6.32863951 8.21220416 1.07756438"></polyline>
                            <polyline id="Fill-28" points="0 0.0109397399 3.04782835 0.0109397399 0.00550250871 5.26201487 0 0.0109397399"></polyline>
                        </g>
                        <path d="M18.7340115,25.0387208 C26.9305733,24.9075029 33.4961343,27.3421497 34.8996883,26.8414043 C35.9810942,26.4555915 35.3059913,24.3147932 34.8996883,22.7937333 C34.6111042,21.7133729 34.4850062,20.8324592 34.4850062,20.8324592 C34.4850062,20.8324592 27.8571124,15.925154 17.9412831,15.925154 C8.02545374,15.925154 0.398695179,20.8324592 0.398695179,20.8324592 C0.398695179,20.8324592 1.04557273,22.3454965 1.79110985,24.0585137 C2.53664696,25.771531 3.11462904,27.3867864 4.3977101,27.0417025 C7.00431036,26.3406589 10.5374497,25.1699387 18.7340115,25.0387208 Z" id="Rectangle-Copy" fill="#143659"></path>
                    </g>
                </g>
            </g>
        </g>
    </g>
</svg>