<svg id="Layer_1" data-name="Layer 1" xmlns="http://www.w3.org/2000/svg" viewBox="0 0 200 37.33"><defs><style>.cls-1{fill:#00b8f3;}</style></defs><title>logo-topbar</title><path class="cls-1" d="M61.05,27.27H50c0.12-5,5.21-6.19,8.06-9a4.17,4.17,0,0,0,1.39-3.16,3.44,3.44,0,0,0-3.75-3.42c-2.75,0-3.82,2.2-3.78,4.66H50.44c-0.07-3.44,1.72-5.93,5.35-5.93C58.71,10.4,61,12,61,15.11c0,2.8-2,4.54-4.21,6-1.63,1.1-4.61,2.58-5,4.83h9.3v1.39Z"/><path class="cls-1" d="M63.18,21.66l7.74-11.12h1.36V21.85H74.8v1.27H72.29v4.16H70.9V23.11H63.18V21.66Zm7.72,0.19V12.74h0l-6.31,9.11H70.9Z"/><path class="cls-1" d="M78.24,21.66c-0.07,3.51,2.46,4.59,5.57,4.59,1.79,0,4.52-1,4.52-3.47,0-1.94-1.94-2.7-3.51-3.08L81,18.76c-2-.5-3.85-1.46-3.85-4.11,0-1.67,1.08-4.8,5.88-4.8,3.37,0,6.33,1.82,6.31,5.31H87.73c-0.1-2.61-2.25-3.92-4.66-3.92-2.22,0-4.28.86-4.28,3.39,0,1.6,1.2,2.27,2.58,2.61l4.16,1C87.94,18.91,90,20,90,22.76c0,1.17-.48,4.88-6.53,4.88-4,0-7-1.82-6.81-6h1.63Z"/><path class="cls-1" d="M93.13,21.51c0,2.2,1.17,4.85,4.06,4.85a3.76,3.76,0,0,0,3.87-3.16h1.51c-0.65,2.8-2.27,4.42-5.38,4.42-3.92,0-5.57-3-5.57-6.53,0-3.25,1.65-6.53,5.57-6.53s5.55,3.47,5.43,6.93H93.13Zm8-1.27c-0.07-2.27-1.48-4.4-3.92-4.4s-3.82,2.15-4.06,4.4h8Z"/><path class="cls-1" d="M103.26,14.94h1.67l3.87,10.83h0l3.82-10.83h1.55l-4.61,12.33H108Z"/><path class="cls-1" d="M116.6,21.51c0,2.2,1.17,4.85,4.06,4.85a3.76,3.76,0,0,0,3.87-3.16H126c-0.65,2.8-2.27,4.42-5.38,4.42-3.92,0-5.57-3-5.57-6.53,0-3.25,1.65-6.53,5.57-6.53s5.55,3.47,5.43,6.93H116.6Zm8-1.27c-0.07-2.27-1.48-4.4-3.92-4.4s-3.82,2.15-4.06,4.4h8Z"/><path class="cls-1" d="M128.1,14.94h1.51v2.13h0a4.18,4.18,0,0,1,3.94-2.49c3.47,0,4.52,1.82,4.52,4.76v7.94h-1.51v-7.7c0-2.13-.69-3.73-3.13-3.73s-3.82,1.82-3.87,4.23v7.19H128.1V14.94Z"/><path class="cls-1" d="M148.39,9.85c5.35,0,8,4.23,8,8.89s-2.68,8.89-8,8.89-8.06-4.23-8.06-8.89S143,9.85,148.39,9.85Zm0,16.4c4.49,0,6.41-3.78,6.41-7.51s-1.91-7.51-6.41-7.51S142,15,142,18.74,143.87,26.25,148.39,26.25Z"/><path class="cls-1" d="M163.43,16.21H161V27.27h-1.51V16.21h-2.1V14.94h2.1V13.82c0-2.13.57-3.61,3-3.61a7.91,7.91,0,0,1,1.27.1v1.29a6.16,6.16,0,0,0-1.1-.12c-1.67,0-1.63,1.05-1.65,2.39v1.08h2.44v1.27Z"/><path class="cls-1" d="M165.24,16.21h-2.1V14.94h2.1V13.82c0-2.13.57-3.61,3-3.61a7.91,7.91,0,0,1,1.27.1v1.29a6.16,6.16,0,0,0-1.1-.12c-1.67,0-1.63,1.05-1.65,2.39v1.08h2.44v1.27h-2.44V27.27h-1.51V16.21Zm5.4-6h1.51v2.41h-1.51V10.21Zm0,4.73h1.51V27.27h-1.51V14.94Z"/><path class="cls-1" d="M183.74,18.81a3.35,3.35,0,0,0-3.49-3c-2.89,0-4.33,2.63-4.33,5.26s1.43,5.26,4.33,5.26a3.68,3.68,0,0,0,3.59-3.51h1.51c-0.41,3-2.34,4.78-5.09,4.78-3.78,0-5.83-3-5.83-6.53s2.06-6.53,5.83-6.53c2.63,0,4.66,1.41,5,4.23h-1.51Z"/><path class="cls-1" d="M188.33,21.51c0,2.2,1.17,4.85,4.06,4.85a3.76,3.76,0,0,0,3.87-3.16h1.51c-0.65,2.8-2.27,4.42-5.38,4.42-3.92,0-5.57-3-5.57-6.53,0-3.25,1.65-6.53,5.57-6.53s5.55,3.47,5.43,6.93h-9.49Zm8-1.27c-0.07-2.27-1.48-4.4-3.92-4.4s-3.82,2.15-4.06,4.4h8Z"/><path class="cls-1" d="M26.24,13.36a4.36,4.36,0,0,0-2.45,2.45,3.68,3.68,0,0,0-3.32-2.09A3.68,3.68,0,1,1,24.16,10,3.68,3.68,0,0,0,26.24,13.36Zm9,7.73A3.68,3.68,0,0,1,31.89,19a4.36,4.36,0,0,1-2.45,2.45,3.69,3.69,0,0,1,2.09,3.32A3.68,3.68,0,1,0,35.21,21.09ZM16.79,17.41a3.68,3.68,0,1,0-7.37,0,3.68,3.68,0,0,1-3.68,3.68,3.68,3.68,0,1,0,3.68,3.68,3.68,3.68,0,0,1,7-1.59,4.36,4.36,0,0,1,2.45-2.45A3.69,3.69,0,0,1,16.79,17.41Zm11.05-3.68a3.68,3.68,0,0,0-3.68,3.64v0.09a3.69,3.69,0,0,1-2.09,3.27,4.36,4.36,0,0,1,2.45,2.45,3.69,3.69,0,0,1,3.32-2.09A3.68,3.68,0,0,0,27.84,13.72Zm-7.37,7.37a3.68,3.68,0,1,0,3.69,3.68A3.68,3.68,0,0,0,20.47,21.09Z"/></svg>